<?xml version="1.0" encoding="UTF-8" standalone="no"?>
<svg
   xmlns:dc="http://purl.org/dc/elements/1.1/"
   xmlns:cc="http://creativecommons.org/ns#"
   xmlns:rdf="http://www.w3.org/1999/02/22-rdf-syntax-ns#"
   xmlns:svg="http://www.w3.org/2000/svg"
   xmlns="http://www.w3.org/2000/svg"
   xmlns:sodipodi="http://sodipodi.sourceforge.net/DTD/sodipodi-0.dtd"
   xmlns:inkscape="http://www.inkscape.org/namespaces/inkscape"
   viewBox="0 0 46.849998 46.958"
   version="1.1"
   id="svg8">
  <defs
     id="defs2" />
  <sodipodi:namedview
     id="base"
     bordercolor="#666666"
     borderopacity="1.0"
     showgrid="false"
     borderlayer="false"
     showborder="true" />
  <g
     inkscape:label="레이어 1"
     inkscape:groupmode="layer"
     id="layer1">
    <g
       id="g2453"
       transform="matrix(0.3527778,0,0,0.3527778,-54.288623,-213.30216)">
      <path
         style="stroke:none"
         d="m 198.882,627.573 c -0.356,0 -0.773,0.272 -0.813,0.961 -0.027,0.454 0.192,0.639 0.192,0.907 0,0.265 0.285,0.753 -0.16,1.019 -0.442,0.266 -0.2,2.959 -0.234,3.41 -0.069,0.912 0.644,1.297 0.911,1.385 0.267,0.089 2.949,0.319 4.194,0.23 1.246,-0.089 1.824,0.796 1.778,1.334 -0.093,1.071 -2.456,2.729 -2.931,3.112 -1.286,1.03 -1.693,1.599 -1.337,2.045 0.356,0.445 0.835,0.445 1.569,-0.438 0.341,-0.406 3.143,-2.299 3.547,-3.176 0.543,-1.173 0.131,-3.5 0.041,-4.211 -0.087,-0.71 -0.621,-1.245 -1.601,-1.245 -0.975,0 -3.556,0.535 -4.087,-0.443 -0.534,-0.978 -0.09,-2.224 -0.09,-3.201 0,-0.977 0,-1.689 -0.979,-1.689 z"
         id="path2319" />
      <path
         style="stroke:none"
         d="m 207.923,632.722 c -0.285,0.056 -0.98,0.237 -0.878,1.656 0.1,1.418 0.708,1.621 1.01,2.061 0.304,0.439 0.406,0.708 -0.034,1.349 -0.439,0.643 -0.91,2.094 -0.707,3.24 0.204,1.151 0.844,1.217 1.32,1.184 0.473,-0.033 1.855,-0.135 1.855,-1.251 0,-1.112 -0.635,-0.681 -0.732,-1.251 -0.033,-0.203 -0.028,-0.73 0.057,-0.809 0.107,-0.098 0.234,-0.168 0.778,-0.168 0.537,0 2.059,1.251 2.363,1.858 0.302,0.607 0.707,1.352 1.251,1.352 0.535,0 1.182,0.067 1.078,-1.623 -0.102,-1.687 -0.709,-1.823 -1.217,-2.295 -0.508,-0.473 -1.147,-1.147 -0.169,-1.756 0.98,-0.609 2.058,-0.54 1.317,-2.229 -0.742,-1.689 -1.317,-1.519 -1.857,-1.519 -0.54,0 -1.317,0.267 -1.317,1.419 0,0.842 0.101,1.514 -0.167,1.62 -0.439,0.169 -1.214,0.169 -1.722,-0.069 -0.509,-0.236 -0.657,-1.009 -1.286,-2.259 -0.232,-0.475 -0.604,-0.579 -0.943,-0.51 z"
         id="path2321" />
      <path
         style="stroke:none"
         d="m 217.938,632.531 c -0.309,0 -0.866,0.313 -0.99,0.746 -0.126,0.435 0,1.552 0.182,1.925 0.189,0.373 0.748,0.435 1.121,0.622 0.373,0.185 0.93,0.372 0.93,1.551 0,1.182 -0.063,4.349 0.253,4.72 0.308,0.373 0.493,0.31 0.744,0.31 0.249,0 0.651,-0.311 0.683,-0.806 0.042,-0.699 -0.325,-1.237 -0.561,-1.803 -0.279,-0.669 -0.433,-2.73 -0.433,-3.662 0,-0.932 0.376,-2.229 -0.426,-2.883 -0.536,-0.439 -1.25,-0.72 -1.503,-0.72 z"
         id="path2323" />
      <path
         style="stroke:none"
         d="m 222.95,632.763 c 0,0 -1.549,0.125 -1.416,1.584 0.124,1.316 0.975,1.387 1.169,1.558 0.198,0.17 0.926,0.439 0.828,1.731 -0.096,1.291 -0.097,1.91 -0.778,2.363 -0.511,0.34 -0.806,0.973 -0.464,1.363 0.472,0.54 1.122,1.096 1.466,0.729 0.342,-0.363 0.555,-1.654 0.533,-2.848 -0.024,-1.193 0.047,-3.263 -0.098,-4.117 -0.145,-0.851 0.22,-2.29 -1.24,-2.363 z"
         id="path2325" />
      <path
         style="stroke:none"
         d="m 226.852,633.202 c -0.174,0.098 -0.635,0.269 -0.755,0.853 -0.124,0.585 0.12,1.339 0.193,1.632 0.073,0.293 0.537,0.999 0.463,1.584 -0.075,0.584 -0.512,1.191 -0.583,1.679 -0.073,0.487 -0.975,2.194 0.193,2.924 1.169,0.731 0.927,-0.488 0.904,-0.951 -0.027,-0.462 -0.294,-1.778 0.439,-2.898 0.729,-1.12 1.36,-1.999 2.847,-1.999 1.486,0 2.215,0.756 2.41,2.073 0.196,1.315 -0.195,1.484 -0.753,1.558 -0.56,0.073 -3.045,-0.243 -3.46,0.098 -0.414,0.34 -0.926,0.803 -0.755,1.559 0.17,0.755 0.075,0.974 0.778,1.072 0.707,0.096 4.144,-0.024 4.507,-0.098 0.366,-0.074 0.973,-0.293 0.828,-2.095 -0.145,-1.803 -0.186,-3.559 -0.22,-3.75 -0.046,-0.295 -0.414,-1.561 -0.925,-2.145 -0.441,-0.507 -0.899,-1.535 -1.899,-1.072 -0.996,0.463 -0.996,1.17 -1.412,1.292 -0.414,0.122 -0.696,0.302 -1.461,-0.708 -0.463,-0.608 -1.001,-0.802 -1.339,-0.608 z"
         id="path2327" />
      <path
         style="stroke:none"
         d="m 236.143,632.983 c -0.276,0.075 -0.999,0.512 -0.755,1.096 0.244,0.584 1.17,2.022 1.438,2.314 0.266,0.293 1.291,1.801 1.169,2.46 -0.124,0.657 -1.098,1.291 -1.755,1.73 -0.657,0.438 -1.096,1.119 -0.194,1.486 0.899,0.364 3.434,0.071 3.653,0.022 0.218,-0.047 1.144,-0.459 1.095,-1.436 -0.048,-0.974 0.338,-1.111 0.512,-1.485 0.249,-0.534 0.778,-1.974 0.829,-2.388 0.049,-0.414 0.291,-1.926 0,-2.703 -0.293,-0.779 -0.975,-1.947 -2.386,-1.728 -0.951,0.146 -0.542,2.254 -0.366,2.604 0.195,0.392 1.631,1.12 1.411,2.097 -0.219,0.973 -0.535,1.168 -1.144,1.168 -0.61,0 -1.487,-0.975 -1.509,-1.804 -0.024,-0.827 0.374,-1.602 0.34,-2.069 -0.046,-0.684 -0.609,-1.826 -2.338,-1.364 z"
         id="path2329" />
      <path
         style="stroke:none"
         d="m 209.408,653.386 -17.806,10.297 c -1.123,0.65 -1.811,1.842 -1.811,3.135 l 0.033,31.665 c 0,1.282 0.683,2.471 1.797,3.121 l 27.304,15.93 c 1.117,0.653 2.511,0.66 3.633,0.002 l 27.547,-15.926 c 1.114,-0.646 1.806,-1.842 1.806,-3.127 l 0.013,-31.665 c 0,-1.293 -0.684,-2.485 -1.803,-3.135 l -17.816,-10.289 c -1.728,-0.991 -3.94,-0.405 -4.935,1.326 -0.332,0.57 -0.485,1.19 -0.485,1.803 0,1.25 0.642,2.464 1.801,3.132 0,0 13.09,7.561 16.006,9.248 0,3.384 -0.007,24.112 -0.008,27.491 -2.931,1.688 -20.983,12.127 -23.93,13.836 -2.935,-1.715 -20.796,-12.135 -23.698,-13.831 -0.005,-3.361 -0.03,-24.112 -0.032,-27.496 2.92,-1.691 16.004,-9.259 16.004,-9.259 1.16,-0.666 1.806,-1.883 1.806,-3.127 0,-0.617 -0.154,-1.239 -0.492,-1.809 -0.996,-1.728 -3.203,-2.32 -4.934,-1.322 z"
         id="path2331" />
      <path
         style="stroke:none"
         d="m 173.108,655.087 c -0.998,1.725 -0.412,3.936 1.314,4.936 l 9.655,5.593 c 1.726,1.003 3.939,0.412 4.935,-1.318 1.007,-1.722 0.415,-3.937 -1.309,-4.938 l -9.653,-5.585 c -1.73,-1.004 -3.938,-0.418 -4.942,1.312 z"
         id="path2333" />
      <path
         style="stroke:none"
         d="m 263.675,653.775 -9.649,5.585 c -1.73,1.001 -2.316,3.216 -1.318,4.938 1.004,1.73 3.212,2.321 4.941,1.318 l 9.652,-5.593 c 1.725,-1 2.319,-3.211 1.315,-4.936 -0.999,-1.73 -3.212,-2.316 -4.941,-1.312 z"
         id="path2335" />
      <path
         style="stroke:none"
         d="m 253.126,652.73 c 0,2.662 -2.159,4.82 -4.819,4.82 -2.665,0 -4.825,-2.158 -4.825,-4.82 0,-2.662 2.16,-4.82 4.825,-4.82 2.66,0 4.819,2.158 4.819,4.82 z"
         id="path2337" />
      <path
         style="stroke:none"
         d="m 198.249,652.73 c 0,2.662 -2.16,4.82 -4.82,4.82 -2.659,0 -4.815,-2.158 -4.815,-4.82 0,-2.662 2.156,-4.82 4.815,-4.82 2.66,0 4.82,2.158 4.82,4.82 z"
         id="path2339" />
      <path
         style="stroke:none"
         d="m 225.671,669.03 c 0,2.661 -2.163,4.818 -4.818,4.818 -2.658,0 -4.822,-2.157 -4.822,-4.818 0,-2.661 2.164,-4.821 4.822,-4.821 2.655,0 4.818,2.16 4.818,4.821 z"
         id="path2341" />
      <path
         style="stroke:none"
         d="m 199.97,670.617 c -1.002,1.727 -0.414,3.941 1.306,4.946 l 10.333,6.014 c 1.73,1.002 3.941,0.42 4.949,-1.304 1.001,-1.731 0.419,-3.944 -1.309,-4.948 l -10.335,-6.013 c -1.727,-1.003 -3.942,-0.42 -4.944,1.305 z"
         id="path2343" />
      <path
         style="stroke:none"
         d="m 236.743,669.302 -12.798,7.43 c -5.37,2.979 -6.621,5.046 -6.621,11.007 v 15.534 c 0,1.995 1.621,3.611 3.617,3.611 1.998,0 3.619,-1.616 3.619,-3.611 v -15.534 c 0,-3.078 0,-3.078 2.958,-4.716 l 12.852,-7.467 c 1.727,-1.004 2.316,-3.215 1.312,-4.94 -1.001,-1.727 -3.214,-2.314 -4.939,-1.314 z"
         id="path2345" />
      <path
         style="stroke:none"
         d="m 167.294,651.921 -0.745,2.602 -2.224,-0.639 -2.356,-0.673 -1.242,4.339 2.195,0.627 2.386,0.681 -0.746,2.606 -4.609,-1.322 -2.863,-0.821 -3.201,-0.92 0.744,-2.597 2.045,0.584 2.049,0.588 1.24,-4.34 -2.125,-0.608 -1.967,-0.562 0.747,-2.606 4.656,1.336 2.847,0.819 z"
         id="path2347" />
      <path
         style="stroke:none"
         d="m 164.429,645.117 -2.415,-2.684 -0.056,-0.106 3.625,0.527 z m 3.529,-4.374 -2.954,-0.328 c -1.233,-0.144 -1.929,-0.224 -2.084,-0.239 -0.936,-0.119 -1.622,-0.216 -2.059,-0.284 l -1.464,2.875 2.163,2.572 3.04,3.643 2.515,3.091 1.345,-2.638 -2.522,-2.794 1.707,-3.35 2.017,0.282 1.658,0.246 1.307,-2.562 z"
         id="path2349" />
      <path
         style="stroke:none"
         d="m 178.777,633.589 -1.969,2.514 -3.784,-0.535 -2.279,-0.325 -2.679,-0.385 3.215,2.561 2.792,2.182 -1.466,1.878 -4.25,-3.327 -4.499,-3.516 2.009,-2.568 8.817,1.386 -6.122,-4.831 1.468,-1.878 3.462,2.711 2.478,1.936 z"
         id="path2351" />
      <path
         style="stroke:none"
         d="m 182.811,626.237 c 0.255,0.282 0.448,0.586 0.587,0.919 0.138,0.331 0.2,0.702 0.183,1.115 -0.014,0.412 -0.14,0.835 -0.371,1.273 -0.232,0.436 -0.589,0.874 -1.074,1.316 -0.335,0.304 -0.699,0.592 -1.087,0.856 l -1.334,0.81 -1.852,-1.588 c 0.254,-0.067 0.477,-0.131 0.664,-0.198 0.188,-0.063 0.393,-0.149 0.61,-0.259 0.468,-0.23 0.858,-0.486 1.169,-0.769 0.156,-0.144 0.279,-0.271 0.367,-0.392 0.089,-0.12 0.16,-0.262 0.222,-0.436 0.058,-0.176 0.077,-0.336 0.058,-0.483 -0.021,-0.145 -0.106,-0.301 -0.256,-0.464 -0.177,-0.198 -0.468,-0.323 -0.867,-0.379 -0.302,-0.039 -0.74,-0.048 -1.307,-0.028 -0.731,0.024 -1.171,0.036 -1.321,0.036 -0.526,0 -0.977,-0.04 -1.356,-0.113 -0.376,-0.079 -0.708,-0.192 -0.999,-0.341 -0.286,-0.153 -0.547,-0.353 -0.788,-0.621 -0.269,-0.294 -0.467,-0.619 -0.59,-0.976 -0.125,-0.36 -0.161,-0.74 -0.108,-1.145 0.056,-0.402 0.195,-0.793 0.414,-1.176 0.222,-0.38 0.544,-0.763 0.961,-1.145 0.115,-0.105 0.223,-0.198 0.326,-0.287 0.1,-0.083 0.266,-0.208 0.494,-0.37 0.228,-0.16 0.449,-0.311 0.664,-0.448 0.212,-0.132 0.409,-0.251 0.584,-0.358 l 1.756,1.483 c -0.16,0.056 -0.313,0.115 -0.46,0.174 -0.151,0.063 -0.322,0.137 -0.521,0.233 -0.137,0.078 -0.306,0.188 -0.498,0.32 -0.193,0.131 -0.346,0.246 -0.452,0.344 -0.271,0.248 -0.453,0.511 -0.546,0.79 -0.12,0.382 -0.075,0.681 0.137,0.911 0.162,0.184 0.389,0.314 0.679,0.393 0.292,0.08 0.82,0.103 1.584,0.066 0.498,-0.047 0.938,-0.076 1.324,-0.082 0.519,-0.006 0.969,0.032 1.349,0.121 0.328,0.061 0.627,0.162 0.899,0.307 0.272,0.14 0.525,0.337 0.756,0.591 z"
         id="path2353" />
      <path
         style="stroke:none"
         d="m 193.799,622.118 -2.275,1.467 -1.254,-1.949 -1.327,-2.057 -3.792,2.446 1.238,1.918 1.346,2.086 -2.278,1.469 -2.596,-4.031 -1.614,-2.508 -1.804,-2.8 2.275,-1.463 1.154,1.787 1.151,1.792 3.791,-2.446 -1.196,-1.857 -1.108,-1.721 2.275,-1.463 2.623,4.069 1.607,2.49 z"
         id="path2355" />
      <path
         style="stroke:none"
         d="m 197.723,620.452 -2.453,1.141 -1.954,-4.217 -1.239,-2.674 -1.477,-3.185 2.458,-1.137 2,4.316 1.253,2.704 z"
         id="path2357" />
      <path
         style="stroke:none"
         d="m 208.725,616.749 -3.057,0.922 -2.789,-2.616 -1.672,-1.581 -1.968,-1.858 1.154,3.945 1.023,3.389 -2.281,0.69 -1.557,-5.166 -1.646,-5.469 3.121,-0.937 6.406,6.21 -2.221,-7.472 2.283,-0.687 1.269,4.206 0.905,3.013 z"
         id="path2359" />
      <path
         style="stroke:none"
         d="m 224.078,612.165 c 0.007,0.556 -0.068,1.051 -0.231,1.482 -0.159,0.428 -0.401,0.801 -0.731,1.119 -0.406,0.417 -0.923,0.724 -1.557,0.928 -0.634,0.205 -1.378,0.311 -2.231,0.325 -0.876,0.011 -1.635,-0.075 -2.27,-0.26 -0.643,-0.184 -1.18,-0.492 -1.617,-0.92 -0.309,-0.295 -0.546,-0.654 -0.719,-1.082 -0.168,-0.424 -0.26,-0.906 -0.268,-1.451 l -0.047,-3.25 -0.031,-2.014 -0.034,-2.267 2.712,-0.04 0.045,3.389 0.045,3.174 c 0.013,0.908 0.195,1.582 0.539,2.011 0.343,0.428 0.884,0.637 1.615,0.626 0.743,-0.008 1.277,-0.244 1.597,-0.698 0.318,-0.455 0.475,-1.124 0.461,-2.001 l -0.041,-2.918 -0.023,-1.707 -0.032,-1.936 2.707,-0.039 0.056,3.963 z"
         id="path2361" />
      <path
         style="stroke:none"
         d="m 235.328,617.628 -3.143,-0.574 -1.287,-3.6 -0.771,-2.168 -0.909,-2.548 -0.766,4.036 -0.638,3.485 -2.343,-0.43 0.968,-5.306 1.021,-5.615 3.208,0.583 2.873,8.448 1.43,-7.666 2.344,0.431 -0.787,4.322 -0.562,3.096 z"
         id="path2363" />
      <path
         style="stroke:none"
         d="m 239.336,619.108 -2.568,-0.853 1.462,-4.412 0.929,-2.796 1.106,-3.334 2.569,0.853 -1.5,4.523 -0.939,2.824 z"
         id="path2365" />
      <path
         style="stroke:none"
         d="m 254.883,613.958 -3.415,3.004 -2.89,2.619 -2.649,2.383 -2.784,-1.35 0.427,-3.714 0.403,-3.581 0.456,-4.419 2.516,1.214 -0.557,4.016 -0.342,2.348 -0.374,2.689 0.955,-0.907 2.808,-2.706 2.899,-2.83 z"
         id="path2367" />
      <path
         style="stroke:none"
         d="m 256.237,628.591 -6.286,-4.494 2.597,-3.63 1.608,-2.247 2.254,-3.156 6.283,4.491 -1.21,1.694 -1.491,-1.067 -0.72,-0.515 -0.799,-0.569 -1.073,-0.763 -1.411,1.973 3.499,2.502 -1.171,1.638 -1.953,-1.395 -1.547,-1.109 -1.451,2.032 4.081,2.92 -0.589,0.826 z"
         id="path2369" />
      <path
         style="stroke:none"
         d="m 263.21,635.378 -2.05,-2.04 c 0.078,-0.14 0.312,-0.685 0.705,-1.622 0.392,-0.935 0.629,-1.475 0.707,-1.619 0.116,-0.272 0.373,-0.901 0.771,-1.883 0.133,-0.337 0.269,-0.682 0.409,-1.025 0.079,0.111 0.167,0.229 0.263,0.358 0.092,0.126 0.175,0.226 0.246,0.297 0.391,0.386 0.81,0.624 1.261,0.71 0.235,0.033 0.466,0.012 0.691,-0.062 0.225,-0.075 0.437,-0.216 0.64,-0.423 0.329,-0.329 0.483,-0.661 0.457,-1.001 -0.018,-0.172 -0.077,-0.348 -0.183,-0.532 -0.102,-0.181 -0.229,-0.345 -0.38,-0.498 l -1.259,-1.25 -2.863,2.876 -1.699,1.714 -1.866,1.872 -1.837,-1.825 7.829,-7.875 3.519,3.501 c 0.835,0.827 1.264,1.655 1.292,2.479 0.027,0.746 -0.309,1.468 -1.007,2.168 -0.562,0.57 -1.174,0.875 -1.835,0.924 -0.596,0.047 -1.265,-0.121 -2.005,-0.497 l -0.644,1.872 c -0.097,0.221 -0.235,0.615 -0.422,1.18 -0.071,0.212 -0.142,0.422 -0.211,0.635 z"
         id="path2371" />
      <path
         style="stroke:none"
         d="m 269.811,639.7 c -0.303,0.229 -0.626,0.392 -0.972,0.496 -0.344,0.104 -0.72,0.13 -1.127,0.069 -0.409,-0.052 -0.819,-0.221 -1.23,-0.498 -0.41,-0.274 -0.814,-0.672 -1.203,-1.199 -0.271,-0.364 -0.519,-0.756 -0.743,-1.168 l -0.671,-1.407 1.765,-1.685 c 0.038,0.261 0.081,0.49 0.127,0.683 0.048,0.193 0.114,0.403 0.2,0.631 0.18,0.49 0.397,0.903 0.647,1.242 0.128,0.169 0.246,0.303 0.354,0.403 0.107,0.1 0.246,0.187 0.413,0.262 0.167,0.079 0.325,0.115 0.472,0.109 0.149,-0.008 0.311,-0.074 0.489,-0.209 0.213,-0.158 0.368,-0.434 0.467,-0.824 0.067,-0.299 0.118,-0.732 0.154,-1.298 0.049,-0.729 0.083,-1.167 0.098,-1.316 0.053,-0.525 0.135,-0.97 0.251,-1.338 0.112,-0.369 0.258,-0.689 0.436,-0.961 0.178,-0.269 0.411,-0.513 0.695,-0.723 0.322,-0.236 0.666,-0.4 1.034,-0.488 0.372,-0.089 0.754,-0.086 1.148,0.008 0.395,0.094 0.77,0.269 1.13,0.529 0.357,0.26 0.706,0.616 1.041,1.073 0.095,0.121 0.179,0.24 0.253,0.352 0.073,0.109 0.182,0.286 0.321,0.529 0.138,0.244 0.265,0.476 0.378,0.703 0.114,0.226 0.212,0.433 0.295,0.619 l -1.647,1.598 c -0.041,-0.164 -0.084,-0.324 -0.129,-0.479 -0.047,-0.15 -0.104,-0.33 -0.178,-0.539 -0.068,-0.146 -0.157,-0.322 -0.27,-0.527 -0.113,-0.207 -0.211,-0.371 -0.298,-0.485 -0.218,-0.296 -0.461,-0.5 -0.73,-0.621 -0.366,-0.158 -0.675,-0.144 -0.921,0.043 -0.198,0.143 -0.35,0.358 -0.457,0.638 -0.11,0.284 -0.184,0.806 -0.224,1.569 -0.002,0.498 -0.021,0.94 -0.054,1.327 -0.042,0.515 -0.13,0.958 -0.253,1.33 -0.095,0.318 -0.226,0.604 -0.394,0.865 -0.169,0.252 -0.392,0.486 -0.667,0.687 z"
         id="path2373" />
      <path
         style="stroke:none"
         d="m 269.591,644.805 -1.373,-2.334 4.003,-2.356 2.538,-1.497 3.026,-1.781 1.374,2.332 -4.1,2.417 -2.569,1.511 z"
         id="path2375" />
      <path
         style="stroke:none"
         d="m 281.861,649.638 -1.266,-2.832 -2.744,1.23 -1.142,0.51 -1.435,0.642 -1.374,0.614 -1.541,0.689 -1.106,-2.468 8.236,-3.684 -0.685,-1.537 -0.341,-0.761 -0.239,-0.532 1.901,-0.852 3.635,8.131 z"
         id="path2377" />
      <path
         style="stroke:none"
         d="m 284.799,652.191 -3.557,3.068 2.415,0.467 2.251,0.441 0.395,1.424 0.388,1.39 -3.704,-0.892 -3.783,-0.926 -2.277,0.637 -1.942,0.539 -0.363,-1.303 -0.36,-1.304 4.424,-1.233 1.739,-1.696 1.252,-1.213 0.966,-0.943 1.356,-1.328 z"
         id="path2379" />
      <path
         style="stroke:none"
         d="m 202.675,725.515 c -1.404,-1.901 -3.373,-3.339 -5.693,-4.154 l -0.128,-0.045 -0.007,0.134 c -0.122,2.176 0.554,4.338 1.956,6.248 0.955,1.284 2.199,2.327 3.64,3.153 -1.638,-0.28 -3.254,-0.258 -4.808,0.129 -2.271,0.572 -4.218,1.837 -5.485,3.564 l -0.08,0.109 0.127,0.045 c 2.304,0.851 4.738,0.999 7.04,0.43 2.168,-0.547 3.997,-1.708 5.3,-3.351 0.016,-0.034 0.096,-0.28 0.096,-0.28 l 0.008,-0.015 -0.002,-0.014 c 0.045,-2.106 -0.636,-4.164 -1.964,-5.953 z"
         id="path2381" />
      <path
         style="stroke:none"
         d="m 200.074,730.105 0.068,-0.192 c -0.037,-0.015 -3.93,-1.509 -5.297,-3.017 l -0.113,-0.123 -0.836,2.353 0.17,-0.033 c 1.944,-0.377 5.966,0.997 6.008,1.012 z"
         id="path2383" />
      <path
         style="stroke:none"
         d="m 193.656,727.153 0.004,-0.013 c 0.394,-1.864 0.139,-3.803 -0.738,-5.617 -0.924,-1.922 -2.432,-3.53 -4.352,-4.647 l -0.116,-0.064 -0.033,0.13 c -0.026,0.106 -0.051,0.215 -0.074,0.325 -0.372,1.814 -0.114,3.727 0.758,5.55 0.621,1.286 1.534,2.403 2.661,3.375 -1.392,-0.511 -2.812,-0.759 -4.24,-0.673 -2.146,0.125 -4.035,0.9 -5.472,2.238 l -0.099,0.092 0.116,0.068 c 1.898,1.141 4.033,1.681 6.177,1.567 2.017,-0.126 3.837,-0.846 5.27,-2.084 0.022,-0.03 0.132,-0.233 0.132,-0.233 z"
         id="path2385" />
      <path
         style="stroke:none"
         d="m 189.828,725.167 0.107,-0.174 c -0.035,-0.017 -3.232,-1.996 -4.188,-3.564 l -0.089,-0.142 -1.154,1.976 0.175,-0.002 c 1.782,-0.008 5.117,1.888 5.149,1.906 z"
         id="path2387" />
      <path
         style="stroke:none"
         d="m 184.742,721.376 0.013,-0.011 0.006,-0.012 c 0.643,-1.691 0.691,-3.551 0.131,-5.383 -0.588,-1.945 -1.768,-3.676 -3.404,-5.007 l -0.107,-0.085 -0.051,0.126 c -0.197,0.466 -0.345,0.942 -0.446,1.433 -0.275,1.338 -0.201,2.758 0.226,4.187 0.391,1.29 1.08,2.467 1.983,3.536 -1.221,-0.675 -2.513,-1.107 -3.858,-1.239 -2.027,-0.199 -3.92,0.247 -5.468,1.297 l -0.111,0.074 0.1,0.085 c 1.612,1.351 3.538,2.173 5.573,2.384 1.908,0.178 3.723,-0.231 5.256,-1.185 0.025,-0.023 0.157,-0.2 0.157,-0.2 z"
         id="path2389" />
      <path
         style="stroke:none"
         d="m 176.895,716.394 c 1.672,0.259 4.522,2.521 4.552,2.547 l 0.127,-0.158 c -0.027,-0.022 -2.736,-2.344 -3.404,-3.956 l -0.065,-0.156 -1.387,1.697 z"
         id="path2391" />
      <path
         style="stroke:none"
         d="m 176.76,714.761 0.008,-0.008 0.008,-0.012 c 0.864,-1.484 1.189,-3.221 0.95,-5.027 -0.251,-1.91 -1.09,-3.715 -2.426,-5.221 l -0.089,-0.101 -0.073,0.117 c -0.471,0.751 -0.799,1.577 -0.98,2.452 -0.182,0.884 -0.213,1.823 -0.089,2.786 0.172,1.272 0.636,2.481 1.32,3.623 -1.038,-0.82 -2.181,-1.434 -3.425,-1.765 -1.847,-0.485 -3.739,-0.349 -5.326,0.383 l -0.123,0.054 0.087,0.104 c 1.309,1.511 2.99,2.578 4.862,3.082 1.763,0.466 3.528,0.362 5.11,-0.3 0.033,-0.021 0.186,-0.167 0.186,-0.167 z"
         id="path2393" />
      <path
         style="stroke:none"
         d="m 170.158,708.889 c 1.524,0.5 3.851,3.057 3.872,3.085 l 0.155,-0.137 c -0.024,-0.025 -2.206,-2.617 -2.585,-4.227 l -0.041,-0.166 -1.571,1.389 z"
         id="path2395" />
      <path
         style="stroke:none"
         d="m 170.166,707.269 c 0.034,-0.014 0.207,-0.116 0.207,-0.116 l 0.013,-0.007 0.009,-0.01 c 1.101,-1.21 1.753,-2.761 1.884,-4.486 0.149,-1.831 -0.27,-3.676 -1.21,-5.331 l -0.067,-0.119 -0.095,0.1 c -0.958,0.979 -1.605,2.226 -1.897,3.641 -0.068,0.328 -0.115,0.668 -0.144,1.013 -0.095,1.206 0.097,2.418 0.501,3.612 -0.808,-0.967 -1.739,-1.766 -2.818,-2.313 -1.641,-0.834 -3.378,-1.076 -5.028,-0.706 l -0.131,0.028 0.065,0.118 c 0.917,1.67 2.264,2.994 3.899,3.835 1.542,0.782 3.205,1.038 4.812,0.741 z"
         id="path2397" />
      <path
         style="stroke:none"
         d="m 165.254,700.29 0.153,0.09 c 1.317,0.766 2.964,3.609 2.981,3.636 l 0.177,-0.099 c -0.015,-0.029 -1.523,-2.872 -1.557,-4.441 l -0.005,-0.172 z"
         id="path2399" />
      <path
         style="stroke:none"
         d="m 165.831,698.892 c 0.034,-0.007 0.211,-0.084 0.211,-0.084 l 0.014,-0.009 0.011,-0.008 c 1.184,-1.02 1.979,-2.405 2.301,-4.015 0.357,-1.704 0.174,-3.49 -0.521,-5.166 l -0.053,-0.126 -0.104,0.084 c -1.255,1.003 -2.109,2.439 -2.47,4.152 -0.227,1.123 -0.187,2.283 0.049,3.445 -0.646,-0.996 -1.429,-1.853 -2.378,-2.488 -1.442,-0.979 -3.055,-1.416 -4.657,-1.259 l -0.133,0.014 0.047,0.126 c 0.669,1.677 1.786,3.088 3.232,4.076 1.368,0.918 2.906,1.353 4.451,1.258 z"
         id="path2401" />
      <path
         style="stroke:none"
         d="m 163.79,691 -1.782,0.733 0.138,0.107 c 1.153,0.875 2.372,3.743 2.385,3.772 l 0.187,-0.076 c -0.01,-0.028 -1.1,-2.885 -0.947,-4.365 z"
         id="path2403" />
      <path
         style="stroke:none"
         d="m 162.402,690.312 c 0.037,-0.004 0.213,-0.057 0.213,-0.057 l 0.014,-0.006 0.009,-0.007 c 1.246,-0.788 2.181,-1.985 2.712,-3.462 0.56,-1.558 0.63,-3.267 0.204,-4.935 l -0.035,-0.132 -0.116,0.067 c -1.316,0.78 -2.314,2.016 -2.883,3.578 -0.124,0.348 -0.224,0.706 -0.3,1.07 -0.144,0.704 -0.147,1.442 -0.104,2.186 -0.471,-1.023 -1.09,-1.936 -1.905,-2.671 -1.233,-1.12 -2.694,-1.749 -4.216,-1.815 l -0.136,-0.004 0.03,0.129 c 0.399,1.668 1.262,3.146 2.496,4.273 1.159,1.047 2.547,1.665 4.017,1.786 z"
         id="path2405" />
      <path
         style="stroke:none"
         d="m 159.758,683.056 0.123,0.125 c 0.968,0.977 1.727,3.837 1.733,3.866 l 0.198,-0.048 c -0.006,-0.027 -0.649,-2.858 -0.306,-4.234 l 0.042,-0.164 z"
         id="path2407" />
      <path
         style="stroke:none"
         d="m 160.61,681.814 c 0.039,0 0.207,-0.026 0.207,-0.026 l 0.014,-0.002 0.014,-0.006 c 1.275,-0.587 2.31,-1.599 2.986,-2.92 0.719,-1.376 1.011,-3.018 0.821,-4.625 l -0.016,-0.132 -0.123,0.051 c -1.343,0.568 -2.44,1.604 -3.174,3.007 -0.318,0.618 -0.547,1.28 -0.691,1.969 -0.064,0.318 -0.087,0.648 -0.115,0.977 -0.312,-0.996 -0.774,-1.913 -1.431,-2.689 -1.015,-1.211 -2.312,-1.987 -3.746,-2.241 l -0.133,-0.026 0.012,0.134 c 0.171,1.622 0.798,3.124 1.815,4.339 0.96,1.137 2.192,1.892 3.56,2.19 z"
         id="path2409" />
      <path
         style="stroke:none"
         d="m 159.977,676.501 0.116,0.193 0.068,-0.212 c 0.025,-0.082 0.656,-2.028 0.619,-3.301 -0.038,-1.311 -0.284,-2.039 -0.976,-2.883 l -0.084,-0.102 -0.076,0.112 c -0.566,0.814 -0.782,2.347 -0.662,3.299 0.111,0.869 0.546,2.14 0.995,2.894 z"
         id="path2411" />
      <path
         style="stroke:none"
         d="m 238.65,725.515 c 1.401,-1.901 3.371,-3.339 5.691,-4.154 l 0.129,-0.045 0.007,0.134 c 0.124,2.176 -0.554,4.338 -1.958,6.248 -0.954,1.284 -2.198,2.327 -3.639,3.153 1.639,-0.28 3.255,-0.258 4.808,0.129 2.271,0.572 4.217,1.837 5.485,3.564 l 0.081,0.109 -0.128,0.045 c -2.303,0.851 -4.738,0.999 -7.04,0.43 -2.166,-0.547 -3.997,-1.708 -5.298,-3.351 -0.018,-0.034 -0.099,-0.28 -0.099,-0.28 l -0.004,-0.015 v -0.014 c -0.045,-2.106 0.635,-4.164 1.965,-5.953 z"
         id="path2413" />
      <path
         style="stroke:none"
         d="m 241.249,730.105 -0.069,-0.192 c 0.039,-0.015 3.93,-1.509 5.299,-3.017 l 0.114,-0.123 0.837,2.353 -0.174,-0.033 c -1.943,-0.377 -5.966,0.997 -6.007,1.012 z"
         id="path2415" />
      <path
         style="stroke:none"
         d="m 247.667,727.153 -0.002,-0.013 c -0.395,-1.864 -0.142,-3.803 0.736,-5.617 0.925,-1.922 2.433,-3.53 4.352,-4.647 l 0.118,-0.064 0.032,0.13 c 0.026,0.106 0.051,0.215 0.074,0.325 0.373,1.814 0.112,3.727 -0.757,5.55 -0.621,1.286 -1.536,2.403 -2.664,3.375 1.395,-0.511 2.813,-0.759 4.243,-0.673 2.144,0.125 4.034,0.9 5.471,2.238 l 0.1,0.092 -0.116,0.068 c -1.899,1.141 -4.035,1.681 -6.179,1.567 -2.016,-0.126 -3.839,-0.846 -5.268,-2.084 -0.022,-0.03 -0.132,-0.233 -0.132,-0.233 z"
         id="path2417" />
      <path
         style="stroke:none"
         d="m 251.494,725.167 -0.105,-0.174 c 0.036,-0.017 3.233,-1.996 4.187,-3.564 l 0.089,-0.142 1.155,1.976 -0.175,-0.002 c -1.782,-0.008 -5.117,1.888 -5.151,1.906 z"
         id="path2419" />
      <path
         style="stroke:none"
         d="m 256.582,721.376 -0.014,-0.011 -0.004,-0.012 c -0.644,-1.691 -0.692,-3.551 -0.132,-5.383 0.589,-1.945 1.766,-3.676 3.403,-5.007 l 0.108,-0.085 0.052,0.126 c 0.195,0.466 0.343,0.942 0.445,1.433 0.274,1.338 0.201,2.758 -0.226,4.187 -0.39,1.29 -1.082,2.467 -1.984,3.536 1.223,-0.675 2.514,-1.107 3.858,-1.239 2.029,-0.199 3.921,0.247 5.469,1.297 l 0.11,0.074 -0.1,0.085 c -1.61,1.351 -3.537,2.173 -5.572,2.384 -1.908,0.178 -3.724,-0.231 -5.257,-1.185 -0.025,-0.023 -0.156,-0.2 -0.156,-0.2 z"
         id="path2421" />
      <path
         style="stroke:none"
         d="m 264.429,716.394 c -1.673,0.259 -4.523,2.521 -4.553,2.547 l -0.126,-0.158 c 0.027,-0.022 2.735,-2.344 3.403,-3.956 l 0.066,-0.156 1.387,1.697 z"
         id="path2423" />
      <path
         style="stroke:none"
         d="m 264.565,714.761 -0.009,-0.008 -0.008,-0.012 c -0.864,-1.484 -1.191,-3.221 -0.951,-5.027 0.253,-1.91 1.091,-3.715 2.427,-5.221 l 0.089,-0.101 0.072,0.117 c 0.473,0.751 0.801,1.577 0.981,2.452 0.181,0.884 0.213,1.823 0.088,2.786 -0.172,1.272 -0.635,2.481 -1.319,3.623 1.038,-0.82 2.18,-1.434 3.425,-1.765 1.845,-0.485 3.739,-0.349 5.325,0.383 l 0.123,0.054 -0.086,0.104 c -1.309,1.511 -2.99,2.578 -4.863,3.082 -1.762,0.466 -3.527,0.362 -5.109,-0.3 -0.034,-0.021 -0.185,-0.167 -0.185,-0.167 z"
         id="path2425" />
      <path
         style="stroke:none"
         d="m 271.165,708.889 c -1.524,0.5 -3.85,3.057 -3.871,3.085 l -0.154,-0.137 c 0.023,-0.025 2.206,-2.617 2.584,-4.227 l 0.04,-0.166 1.572,1.389 z"
         id="path2427" />
      <path
         style="stroke:none"
         d="m 271.158,707.269 c -0.033,-0.014 -0.205,-0.116 -0.205,-0.116 l -0.013,-0.007 -0.009,-0.01 c -1.104,-1.21 -1.754,-2.761 -1.886,-4.486 -0.149,-1.831 0.27,-3.676 1.209,-5.331 l 0.068,-0.119 0.095,0.1 c 0.958,0.979 1.605,2.226 1.898,3.641 0.066,0.328 0.112,0.668 0.142,1.013 0.095,1.206 -0.096,2.418 -0.5,3.612 0.808,-0.967 1.738,-1.766 2.818,-2.313 1.64,-0.834 3.377,-1.076 5.027,-0.706 l 0.133,0.028 -0.066,0.118 c -0.916,1.67 -2.265,2.994 -3.899,3.835 -1.542,0.782 -3.206,1.038 -4.812,0.741 z"
         id="path2429" />
      <path
         style="stroke:none"
         d="m 276.071,700.29 -0.154,0.09 c -1.317,0.766 -2.964,3.609 -2.981,3.636 l -0.178,-0.099 c 0.015,-0.029 1.525,-2.872 1.557,-4.441 l 0.006,-0.172 z"
         id="path2431" />
      <path
         style="stroke:none"
         d="m 275.493,698.892 c -0.033,-0.007 -0.212,-0.084 -0.212,-0.084 l -0.011,-0.009 -0.014,-0.008 c -1.183,-1.02 -1.978,-2.405 -2.3,-4.015 -0.357,-1.704 -0.176,-3.49 0.52,-5.166 l 0.053,-0.126 0.105,0.084 c 1.255,1.003 2.108,2.439 2.471,4.152 0.226,1.123 0.186,2.283 -0.05,3.445 0.646,-0.996 1.428,-1.853 2.377,-2.488 1.442,-0.979 3.054,-1.416 4.657,-1.259 l 0.135,0.014 -0.05,0.126 c -0.665,1.677 -1.784,3.088 -3.232,4.076 -1.365,0.918 -2.903,1.353 -4.449,1.258 z"
         id="path2433" />
      <path
         style="stroke:none"
         d="m 277.534,691 1.782,0.733 -0.139,0.107 c -1.153,0.875 -2.372,3.743 -2.384,3.772 l -0.187,-0.076 c 0.01,-0.028 1.099,-2.885 0.946,-4.365 z"
         id="path2435" />
      <path
         style="stroke:none"
         d="m 278.923,690.312 c -0.039,-0.004 -0.215,-0.057 -0.215,-0.057 l -0.015,-0.006 -0.008,-0.007 c -1.245,-0.788 -2.181,-1.985 -2.71,-3.462 -0.56,-1.558 -0.631,-3.267 -0.204,-4.935 l 0.034,-0.132 0.115,0.067 c 1.318,0.78 2.315,2.016 2.885,3.578 0.123,0.348 0.222,0.706 0.298,1.07 0.145,0.704 0.149,1.442 0.104,2.186 0.47,-1.023 1.092,-1.936 1.905,-2.671 1.233,-1.12 2.695,-1.749 4.218,-1.815 l 0.135,-0.004 -0.03,0.129 c -0.4,1.668 -1.264,3.146 -2.496,4.273 -1.158,1.047 -2.547,1.665 -4.016,1.786 z"
         id="path2437" />
      <path
         style="stroke:none"
         d="m 281.566,683.056 -0.122,0.125 c -0.97,0.977 -1.728,3.837 -1.734,3.866 l -0.199,-0.048 c 0.007,-0.027 0.649,-2.858 0.306,-4.234 l -0.041,-0.164 z"
         id="path2439" />
      <path
         style="stroke:none"
         d="m 280.713,681.814 c -0.039,0 -0.206,-0.026 -0.206,-0.026 l -0.014,-0.002 -0.015,-0.006 c -1.272,-0.587 -2.309,-1.599 -2.986,-2.92 -0.718,-1.376 -1.009,-3.018 -0.82,-4.625 l 0.016,-0.132 0.122,0.051 c 1.344,0.568 2.44,1.604 3.174,3.007 0.318,0.618 0.55,1.28 0.69,1.969 0.065,0.318 0.088,0.648 0.117,0.977 0.312,-0.996 0.773,-1.913 1.432,-2.689 1.013,-1.211 2.311,-1.987 3.745,-2.241 l 0.133,-0.026 -0.013,0.134 c -0.17,1.622 -0.796,3.124 -1.815,4.339 -0.959,1.137 -2.191,1.892 -3.56,2.19 z"
         id="path2441" />
      <path
         style="stroke:none"
         d="m 281.347,676.501 -0.116,0.193 -0.067,-0.212 c -0.026,-0.082 -0.657,-2.028 -0.621,-3.301 0.04,-1.311 0.286,-2.039 0.976,-2.883 l 0.084,-0.102 0.078,0.112 c 0.565,0.814 0.78,2.347 0.66,3.299 -0.11,0.869 -0.547,2.14 -0.994,2.894 z"
         id="path2443" />
      <path
         style="stroke:none"
         d="m 210.782,727.71 v 9.762 h -1.791 v -8.115 h -1.794 l 0.763,-1.647 z"
         id="path2445" />
      <path
         style="stroke:none"
         d="m 215.102,731.953 c -0.246,-0.3 -0.372,-0.686 -0.372,-1.155 0,-0.463 0.126,-0.838 0.372,-1.131 0.25,-0.286 0.579,-0.435 0.992,-0.435 0.386,0 0.708,0.15 0.965,0.444 0.256,0.296 0.386,0.659 0.386,1.093 0,0.48 -0.13,0.872 -0.386,1.177 -0.257,0.306 -0.588,0.457 -0.992,0.457 -0.396,0 -0.715,-0.149 -0.965,-0.45 z m -0.942,5.519 h 2.111 l 1.415,-2.343 c 0.991,-1.639 1.488,-3.06 1.488,-4.263 0,-0.994 -0.28,-1.804 -0.849,-2.426 -0.561,-0.626 -1.284,-0.939 -2.168,-0.939 -0.938,0 -1.706,0.318 -2.3,0.957 -0.601,0.637 -0.899,1.459 -0.899,2.463 0,0.873 0.242,1.592 0.726,2.156 0.484,0.569 1.1,0.85 1.855,0.85 0.349,0 0.734,-0.094 1.145,-0.277 z"
         id="path2447" />
      <path
         style="stroke:none"
         d="m 221.115,734.177 c 1.042,-1.772 1.694,-2.906 1.959,-3.401 0.24,-0.443 0.424,-0.85 0.567,-1.228 -0.026,0.347 -0.041,0.91 -0.041,1.681 0,0.77 0,1.753 0,2.948 z m 4.068,0 v -6.676 H 223.6 l -4.32,7.164 v 0.91 h 4.32 v 1.897 h 1.583 v -1.897 h 0.92 v -1.398 z"
         id="path2449" />
      <path
         style="stroke:none"
         d="m 230.915,735.929 c -0.498,0 -0.863,-0.289 -1.096,-0.869 -0.233,-0.58 -0.346,-1.391 -0.346,-2.43 0,-1.059 0.124,-1.875 0.366,-2.451 0.248,-0.576 0.605,-0.865 1.076,-0.865 0.957,0 1.437,1.107 1.437,3.316 0,2.197 -0.48,3.299 -1.437,3.299 z m -2.419,-7.055 c -0.571,0.915 -0.858,2.193 -0.858,3.832 0,1.592 0.291,2.83 0.873,3.713 0.577,0.881 1.387,1.326 2.43,1.326 1.004,0 1.803,-0.461 2.397,-1.383 0.597,-0.92 0.891,-2.146 0.891,-3.685 0,-1.526 -0.262,-2.744 -0.787,-3.658 -0.587,-1.012 -1.435,-1.518 -2.54,-1.518 -1.033,0 -1.835,0.457 -2.406,1.373 z"
         id="path2451" />
    </g>
  </g>
</svg>
